<?xml version="1.0" encoding="UTF-8" standalone="no"?><!DOCTYPE svg PUBLIC "-//W3C//DTD SVG 1.1//EN" "http://www.w3.org/Graphics/SVG/1.1/DTD/svg11.dtd"><svg width="100%" height="100%" viewBox="0 0 1000 1000" version="1.1" xmlns="http://www.w3.org/2000/svg" xmlns:xlink="http://www.w3.org/1999/xlink" xml:space="preserve" xmlns:serif="http://www.serif.com/" style="fill-rule:evenodd;clip-rule:evenodd;stroke-linejoin:round;stroke-miterlimit:2;"><g><rect x="0" y="0" width="1000" height="1000" style="fill:#79d6b6;"/><g><clipPath id="_clip1"><path d="M887.684,204.297l0,-16.942c0,-9.359 -7.586,-16.944 -16.945,-16.944l-5.648,0c-9.357,0 -16.943,7.585 -16.943,16.944l0,16.942l-16.943,0c-9.358,0 -16.944,7.587 -16.944,16.943l0,5.648c0,9.358 7.586,16.944 16.944,16.944l16.943,0l0,16.943c0,9.358 7.586,16.944 16.943,16.944l5.648,0c9.359,0 16.945,-7.586 16.945,-16.944l0,-16.943l16.942,0c9.357,0 16.944,-7.586 16.944,-16.944l0,-5.648c0,-9.356 -7.587,-16.943 -16.944,-16.943l-16.942,0Z"/></clipPath><g clip-path="url(#_clip1)"><rect x="786.723" y="142.872" width="162.385" height="162.386" style="fill:#fff;"/></g></g><g><clipPath id="_clip2"><path d="M522.202,291.091l-177.615,-1.077l87.222,554.109l212.503,0l87.222,-554.109l-209.332,1.077Z"/></clipPath><g clip-path="url(#_clip2)"><rect x="317.049" y="262.476" width="442.023" height="609.186" style="fill:#f7911d;"/></g></g><g><clipPath id="_clip3"><path d="M522.202,291.091l-177.615,-1.077l87.222,554.109l168.099,0l87.221,-554.109l-164.927,1.077Z"/></clipPath><g clip-path="url(#_clip3)"><rect x="317.049" y="262.476" width="397.619" height="609.186" style="fill:#fcdd05;"/></g></g><g><rect x="281.948" y="227.026" width="482.094" height="74.878" style="fill:#fff;"/></g><path d="M305.733,278.124l434.524,0l0,-27.313l-434.524,0l0,27.313Zm458.309,23.784l-482.093,0l0,-74.882l482.093,0l0,74.882Z" style="fill:#030404;fill-rule:nonzero;"/><g><clipPath id="_clip4"><path d="M663.341,155.879l-283.865,0l-33.303,76.649l350.471,0l-33.303,-76.649Z"/></clipPath><g clip-path="url(#_clip4)"><rect x="318.635" y="128.34" width="405.549" height="131.727" style="fill:#fff;"/></g></g><path d="M364.308,220.636l314.202,0l-22.967,-52.867l-268.269,0l-22.966,52.867Zm350.475,23.784l-386.749,0l43.643,-100.436l299.464,0l43.642,100.436Z" style="fill:#050606;fill-rule:nonzero;"/><path d="M410.258,832.231l223.888,0l83.461,-530.248l-195.466,1.001l-195.344,-1.001l83.461,530.248Zm244.22,23.785l-264.551,0l-90.981,-577.968l223.252,1.151l223.26,-1.151l-90.98,577.968Z" style="fill:#030404;fill-rule:nonzero;"/><g><clipPath id="_clip5"><path d="M737.876,446.507l-432.934,0l39.084,220.366l177.383,-1.922l177.383,1.922l39.084,-220.366Z"/></clipPath><g clip-path="url(#_clip5)"><rect x="277.402" y="418.968" width="488.013" height="275.443" style="fill:#fff;"/></g></g><path d="M521.279,653.062l167.563,1.812l34.844,-196.473l-404.554,0l34.844,196.473l167.303,-1.812Zm187.464,25.812l-187.464,-2.028l-187.205,2.028l-43.32,-244.257l461.309,0l-43.32,244.257Z" style="fill:#030404;fill-rule:nonzero;"/><g><clipPath id="_clip6"><path d="M143.582,431.017c35.983,0 65.152,-29.17 65.152,-65.151c0,-35.983 -29.169,-65.152 -65.152,-65.152c-35.982,0 -65.152,29.169 -65.152,65.152c0,35.981 29.17,65.151 65.152,65.151Z"/></clipPath><g clip-path="url(#_clip6)"><path d="M143.582,431.017c-35.982,0 -65.152,-29.17 -65.152,-65.151c0,-35.983 29.17,-65.152 65.152,-65.152c35.983,0 65.152,29.169 65.152,65.152c0,35.981 -29.169,65.151 -65.152,65.151Zm0,-91.979c-14.791,0 -26.828,12.037 -26.828,26.828c0,14.792 12.037,26.829 26.828,26.829c14.792,0 26.829,-12.037 26.829,-26.829c0,-14.791 -12.037,-26.828 -26.829,-26.828Z" style="fill:#9be1c9;fill-rule:nonzero;"/></g></g><g><clipPath id="_clip7"><path d="M821.925,591.98c16.935,0 30.661,-13.727 30.661,-30.66c0,-16.932 -13.726,-30.659 -30.661,-30.659c-16.932,0 -30.659,13.727 -30.659,30.659c0,16.933 13.727,30.66 30.659,30.66Z"/></clipPath><g clip-path="url(#_clip7)"><path d="M821.925,591.98c-16.932,0 -30.659,-13.727 -30.659,-30.66c0,-16.932 13.727,-30.659 30.659,-30.659c16.935,0 30.661,13.727 30.661,30.659c0,16.933 -13.726,30.66 -30.661,30.66Z" style="fill:#9be1c9;fill-rule:nonzero;"/></g></g><g><clipPath id="_clip8"><path d="M247.059,768.273c16.932,0 30.659,-13.727 30.659,-30.659c0,-16.934 -13.727,-30.659 -30.659,-30.659c-16.933,0 -30.661,13.725 -30.661,30.659c0,16.932 13.728,30.659 30.661,30.659Z"/></clipPath><g clip-path="url(#_clip8)"><rect x="188.859" y="679.415" width="116.398" height="116.397" style="fill:#fff;"/></g></g></g></svg>