<?xml version="1.0" encoding="UTF-8" standalone="no"?><!DOCTYPE svg PUBLIC "-//W3C//DTD SVG 1.1//EN" "http://www.w3.org/Graphics/SVG/1.1/DTD/svg11.dtd"><svg width="100%" height="100%" viewBox="0 0 1000 1000" version="1.1" xmlns="http://www.w3.org/2000/svg" xmlns:xlink="http://www.w3.org/1999/xlink" xml:space="preserve" xmlns:serif="http://www.serif.com/" style="fill-rule:evenodd;clip-rule:evenodd;stroke-linejoin:round;stroke-miterlimit:2;"><g id="Layer-1" serif:id="Layer 1"><rect x="0" y="0" width="1000" height="1000" style="fill:#79d6b6;"/><path d="M499.206,291.092l-177.614,-1.077l87.22,554.107l212.504,0l87.222,-554.107l-209.332,1.077Z" style="fill:#ff9100;fill-rule:nonzero;"/><path d="M499.206,291.092l-177.614,-1.077l87.22,554.107l168.101,0l87.221,-554.107l-164.928,1.077Z" style="fill:#fd0;fill-rule:nonzero;"/><rect x="270.846" y="238.916" width="458.308" height="51.098" style="fill:#fff;"/><path d="M282.737,278.124l434.523,0l0,-27.313l-434.523,0l0,27.313Zm458.309,23.784l-482.093,0l0,-74.882l482.093,0l0,74.882Z" style="fill-rule:nonzero;"/><path d="M640.346,155.88l-283.866,0l-33.302,76.648l350.471,0l-33.303,-76.648Z" style="fill:#fff;fill-rule:nonzero;"/><path d="M341.312,220.636l314.202,0l-22.967,-52.867l-268.268,0l-22.967,52.867Zm350.476,23.784l-386.749,0l43.642,-100.436l299.464,0l43.643,100.436Z" style="fill:#050505;fill-rule:nonzero;"/><path d="M387.262,832.232l223.889,0l83.461,-530.248l-195.467,1l-195.344,-1l83.461,530.248Zm244.22,23.784l-264.551,0l-90.981,-577.967l223.253,1.151l223.259,-1.151l-90.98,577.967Z" style="fill-rule:nonzero;"/><path d="M714.88,446.507l-432.935,0l39.087,220.366l177.382,-1.922l177.383,1.922l39.083,-220.366Z" style="fill:#fff;fill-rule:nonzero;"/><path d="M498.284,653.062l167.562,1.812l34.844,-196.472l-404.553,0l34.843,196.472l167.304,-1.812Zm187.464,25.812l-187.464,-2.028l-187.205,2.028l-43.32,-244.257l461.309,0l-43.32,244.257Z" style="fill-rule:nonzero;"/></g></svg>